<?xml version="1.0" standalone="no"?>
<!DOCTYPE svg PUBLIC "-//W3C//DTD SVG 20010904//EN"
 "http://www.w3.org/TR/2001/REC-SVG-20010904/DTD/svg10.dtd">
<svg version="1.0" xmlns="http://www.w3.org/2000/svg"
 width="1920.000000pt" height="1080.000000pt" viewBox="0 0 1920.000000 1080.000000"
 preserveAspectRatio="xMidYMid meet">

<g transform="translate(0.000000,1080.000000) scale(0.100000,-0.100000)"
fill="#000000" stroke="none">
<path d="M0 5400 l0 -5400 9600 0 9600 0 0 5400 0 5400 -9600 0 -9600 0 0
-5400z m9460 1760 c0 -73 4 -120 10 -120 6 0 10 -9 10 -20 0 -14 -5 -18 -17
-13 -37 12 -43 34 -43 148 0 113 3 125 27 125 10 0 13 -27 13 -120z m97 94 c9
-23 -13 -40 -32 -24 -12 10 -13 16 -4 26 15 18 28 18 36 -2z m-197 -4 c29 -16
15 -40 -18 -30 -70 20 -101 -39 -34 -66 78 -33 101 -78 63 -125 -15 -19 -29
-24 -68 -24 -58 0 -84 10 -78 27 4 9 24 13 63 13 54 0 57 1 57 25 0 19 -9 29
-40 43 -22 11 -48 26 -57 35 -18 15 -24 58 -10 78 21 31 85 44 122 24z m374
-60 c25 -9 26 -13 26 -82 0 -108 -13 -144 -55 -158 -41 -14 -95 -5 -95 16 0
10 12 13 46 12 30 -2 48 2 54 12 15 24 12 33 -11 27 -28 -7 -77 11 -89 33 -14
26 -12 92 4 112 25 33 76 45 120 28z m207 -19 c60 -61 25 -165 -56 -165 -81 0
-116 104 -56 165 18 17 40 29 56 29 16 0 38 -12 56 -29z m-391 -71 c0 -73 -3
-90 -15 -90 -12 0 -15 17 -15 90 0 73 3 90 15 90 12 0 15 -17 15 -90z m-6918
-1605 c37 -148 67 -282 68 -297 0 -15 5 -30 10 -33 6 -4 10 15 10 50 0 34 23
147 61 300 l61 245 39 0 c44 0 31 35 112 -295 30 -121 58 -245 63 -275 l8 -55
7 77 c3 42 33 183 65 313 l59 235 43 0 c37 0 43 -3 38 -17 -3 -10 -42 -166
-87 -346 l-82 -328 -55 3 -56 3 -53 210 c-31 123 -53 235 -54 270 -1 72 4 88
-75 -242 l-58 -243 -56 0 -57 0 -85 343 c-46 188 -83 346 -80 350 2 4 22 7 45
5 l41 -3 68 -270z m10918 220 l0 -45 -50 0 -50 0 0 45 0 45 50 0 50 0 0 -45z
m1590 0 l0 -45 -45 0 -45 0 0 45 0 45 45 0 45 0 0 -45z m-370 -65 l0 -70 75 0
75 0 0 -40 0 -40 -76 0 -76 0 4 -163 c3 -185 8 -197 68 -197 30 0 39 -5 48
-25 16 -34 17 -31 -19 -44 -71 -25 -136 -4 -166 52 -15 26 -19 63 -21 205 l-4
172 -34 0 c-33 0 -34 1 -34 40 0 39 1 40 35 40 l35 0 0 48 c0 45 2 49 38 70
20 12 40 22 45 22 4 0 7 -31 7 -70z m-11089 -86 c61 -31 99 -112 99 -211 l0
-53 -160 0 -160 0 0 -25 c0 -39 25 -89 55 -113 34 -27 106 -29 166 -6 39 16
41 16 62 -5 l22 -22 -28 -24 c-48 -42 -147 -57 -218 -34 -98 33 -151 121 -152
248 0 125 56 223 149 257 45 16 122 11 165 -12z m774 4 c28 -13 29 -17 14 -52
-10 -21 -15 -23 -36 -15 -13 5 -49 9 -78 9 -47 0 -57 -3 -71 -25 -15 -23 -15
-27 0 -49 9 -14 40 -33 73 -46 120 -45 163 -89 163 -171 0 -119 -128 -187
-273 -145 -31 9 -59 20 -62 25 -3 5 0 21 7 36 9 20 17 25 32 20 12 -3 50 -9
86 -12 57 -4 69 -2 93 17 19 15 27 30 27 54 0 41 -14 53 -118 105 -92 46 -122
81 -122 143 0 51 46 104 103 117 47 11 126 6 162 -11z m432 11 c88 -23 133
-96 133 -218 l0 -61 -160 0 c-121 0 -160 -3 -160 -12 0 -39 25 -90 56 -117 41
-36 98 -41 163 -15 36 14 41 14 66 -2 14 -9 24 -22 22 -28 -1 -6 -27 -23 -57
-38 -118 -61 -252 -20 -313 96 -17 33 -21 58 -22 136 0 85 3 101 27 147 31 58
75 96 128 111 48 14 64 14 117 1z m515 0 c21 -5 50 -20 64 -32 l25 -22 -24
-23 c-23 -22 -25 -22 -62 -6 -79 33 -163 -6 -185 -85 -17 -63 -12 -143 13
-191 36 -73 102 -94 203 -64 17 4 24 -1 34 -26 15 -37 10 -43 -55 -61 -140
-39 -267 50 -294 205 -19 111 7 197 80 260 57 48 131 65 201 45z m308 -161 c0
-185 9 -245 36 -265 26 -19 69 -16 114 7 l40 20 0 199 0 198 42 6 c23 3 46 3
50 1 4 -3 8 -120 8 -260 l0 -254 -50 0 c-48 0 -50 1 -50 27 0 24 -1 25 -12 10
-17 -22 -80 -47 -120 -47 -50 0 -99 30 -122 75 -19 36 -21 61 -24 242 l-3 202
33 4 c18 2 39 5 46 5 9 2 12 -38 12 -170z m560 125 l1 -48 19 37 c16 29 29 40
62 49 41 11 100 3 99 -13 -1 -5 -1 -21 -1 -38 0 -29 -1 -30 -50 -30 -43 0 -55
-5 -90 -36 l-40 -36 0 -179 0 -179 -45 0 -45 0 0 254 0 255 28 4 c63 9 62 10
62 -40z m507 36 c88 -23 133 -96 133 -218 l0 -61 -160 0 c-121 0 -160 -3 -160
-12 0 -39 25 -90 56 -117 41 -36 98 -41 163 -15 36 14 41 14 66 -2 14 -9 24
-22 22 -28 -1 -6 -27 -23 -57 -38 -118 -61 -252 -20 -313 96 -17 33 -21 58
-22 136 0 85 3 101 27 147 31 58 75 96 128 111 48 14 64 14 117 1z m663 -136
c30 -82 64 -181 76 -222 l21 -73 12 48 c7 27 39 124 73 216 l60 166 37 5 c20
2 39 3 42 1 10 -5 -205 -587 -235 -639 -52 -89 -131 -121 -186 -77 -20 16 -21
21 -11 41 10 18 18 21 42 16 37 -8 62 11 94 76 l24 46 -95 258 c-52 143 -94
262 -94 266 0 4 15 10 33 12 17 2 37 5 43 5 6 1 35 -64 64 -145z m728 118
c142 -72 176 -299 64 -423 -85 -95 -215 -104 -311 -22 -127 109 -108 368 34
441 72 38 144 39 213 4z m362 -170 c0 -188 1 -200 22 -226 19 -24 26 -27 64
-22 23 2 56 14 73 26 l31 22 0 195 c0 158 3 194 14 194 7 0 28 3 45 6 l31 7 0
-262 0 -261 -45 0 c-44 0 -45 1 -45 33 l0 32 -23 -26 c-62 -73 -195 -61 -237
22 -18 34 -20 60 -20 243 l0 205 28 4 c68 10 62 27 62 -192z m550 152 l1 -48
22 38 c25 42 77 63 134 52 26 -5 33 -11 33 -30 0 -44 -10 -55 -52 -55 -47 0
-89 -20 -117 -56 -19 -25 -21 -39 -21 -200 l0 -174 -45 0 -45 0 0 254 0 255
28 4 c63 9 62 10 62 -40z m880 22 c41 -21 48 -42 22 -68 -21 -20 -23 -20 -57
-4 -72 34 -146 10 -176 -57 -23 -50 -25 -162 -5 -210 29 -70 107 -101 184 -74
l43 16 14 -29 c22 -41 20 -46 -32 -63 -125 -43 -241 7 -294 127 -18 40 -23 71
-23 132 -1 69 3 87 28 131 31 58 70 91 130 110 49 16 123 11 166 -11z m468 -4
c142 -72 176 -299 64 -423 -85 -95 -215 -104 -311 -22 -127 109 -108 368 34
441 72 38 144 39 213 4z m352 -7 l0 -37 23 25 c28 30 112 53 157 43 37 -8 90
-51 90 -73 0 -11 11 -4 31 20 75 93 220 65 248 -46 6 -25 11 -126 11 -230 l0
-186 -44 0 -44 0 -4 201 c-3 200 -3 201 -28 221 -30 24 -72 20 -121 -12 l-34
-22 3 -194 3 -194 -50 0 -51 0 0 200 c0 190 -1 201 -21 221 -26 26 -81 22
-134 -11 l-35 -22 0 -194 0 -194 -45 0 -45 0 0 254 0 255 33 4 c17 2 38 5 45
5 8 1 12 -11 12 -34z m830 0 l0 -37 23 25 c28 30 112 53 157 43 37 -8 90 -51
90 -73 0 -11 11 -4 31 20 75 93 220 65 248 -46 6 -25 11 -126 11 -230 l0 -186
-44 0 -44 0 -4 201 c-3 200 -3 201 -28 221 -30 24 -72 20 -121 -12 l-34 -22 3
-194 3 -194 -50 0 -51 0 0 200 c0 190 -1 201 -21 221 -26 26 -81 22 -134 -11
l-35 -22 0 -194 0 -194 -45 0 -45 0 0 254 0 255 33 4 c17 2 38 5 45 5 8 1 12
-11 12 -34z m830 -136 c0 -185 9 -245 36 -265 26 -19 69 -16 114 7 l40 20 0
199 0 198 42 6 c23 3 46 3 50 1 4 -3 8 -120 8 -260 l0 -254 -50 0 c-48 0 -50
1 -50 27 0 24 -1 25 -12 10 -17 -22 -80 -47 -120 -47 -50 0 -99 30 -122 75
-19 36 -21 61 -24 242 l-3 202 33 4 c18 2 39 5 46 5 9 2 12 -38 12 -170z m560
136 l0 -37 20 26 c34 43 155 58 201 24 8 -7 24 -25 35 -42 17 -26 19 -52 22
-242 l4 -213 -45 0 -45 0 -4 201 c-3 197 -3 201 -27 220 -30 25 -57 24 -111
-3 l-45 -23 -3 -197 -2 -198 -45 0 -45 0 0 254 0 255 28 4 c62 9 62 9 62 -29z
m1026 6 c39 -25 41 -30 15 -61 l-19 -23 -40 18 c-46 21 -98 17 -139 -9 -78
-52 -76 -268 3 -320 37 -24 104 -29 145 -12 l36 15 16 -33 c18 -38 13 -45 -42
-64 -113 -38 -233 17 -285 129 -32 69 -30 199 5 265 27 54 85 102 140 116 50
12 126 3 165 -21z m380 19 c58 -15 101 -63 108 -121 3 -24 7 -121 9 -215 l3
-173 -48 0 c-47 0 -48 1 -48 31 l0 31 -35 -31 c-45 -39 -78 -47 -134 -32 -80
21 -121 76 -121 162 0 69 27 110 92 143 55 27 110 33 167 16 l34 -9 -6 46 c-7
69 -34 87 -112 79 -33 -3 -71 -9 -86 -12 -20 -4 -27 -1 -37 21 -18 38 -16 41
31 53 93 25 121 26 183 11z m1220 -24 c80 -47 119 -135 112 -255 -4 -61 -10
-87 -31 -123 -96 -163 -309 -154 -400 18 -18 32 -22 57 -22 130 0 80 3 96 28
141 16 29 43 62 60 74 72 54 176 60 253 15z m344 -2 c1 -31 3 -35 11 -20 24
41 128 66 189 44 26 -9 41 -24 58 -57 21 -42 22 -57 22 -247 l0 -203 -44 0
-45 0 -3 206 c-3 190 -4 207 -22 220 -28 20 -65 17 -116 -8 l-45 -23 -3 -197
-2 -198 -45 0 -45 0 0 254 0 255 28 4 c62 9 62 9 62 -30z m639 26 c60 -13 67
-21 51 -59 -10 -25 -15 -28 -37 -19 -32 12 -110 12 -134 -1 -27 -15 -25 -64 4
-82 12 -8 49 -25 81 -38 114 -45 157 -109 135 -197 -27 -106 -173 -154 -303
-99 l-37 15 16 32 c13 25 21 30 38 24 46 -14 128 -17 156 -6 38 16 56 55 41
92 -9 20 -35 39 -105 73 -54 27 -100 57 -110 72 -52 80 -11 171 88 194 46 11
60 11 116 -1z m-3059 -259 l0 -250 -45 0 -45 0 0 244 0 245 33 4 c17 2 38 5
45 5 9 2 12 -54 12 -248z m1590 0 l0 -250 -45 0 -45 0 0 244 0 245 33 4 c17 2
38 5 45 5 9 2 12 -54 12 -248z m-4658 -927 c3 -359 4 -363 67 -363 31 0 40 -5
50 -26 6 -15 10 -28 9 -29 -34 -28 -104 -33 -147 -10 -56 29 -66 68 -68 295
-2 113 -4 258 -6 322 l-2 117 30 4 c70 9 63 40 67 -310z m-3888 0 c36 -148 70
-290 74 -318 l8 -50 7 80 c4 44 34 184 65 310 l58 230 40 3 39 3 63 -253 c34
-139 65 -275 68 -301 8 -60 24 -43 24 26 0 39 49 254 111 490 9 35 12 37 49
37 26 0 40 -5 40 -12 0 -7 -38 -161 -83 -343 l-83 -330 -56 -3 -55 -3 -51 208
c-28 114 -54 237 -58 273 l-7 65 -18 -90 c-14 -76 -60 -267 -100 -418 l-10
-38 -56 3 -56 3 -83 335 c-46 184 -81 341 -79 348 3 7 21 12 43 12 l40 0 66
-267z m3562 252 c27 -8 58 -21 69 -29 20 -15 20 -15 -5 -40 -24 -24 -26 -25
-65 -11 -127 45 -245 -19 -202 -109 12 -27 36 -44 124 -89 149 -76 183 -116
183 -213 0 -149 -165 -240 -341 -188 -79 23 -91 31 -80 52 29 53 32 54 89 32
121 -46 232 0 232 96 0 60 -34 96 -141 149 -147 74 -190 129 -170 217 27 117
163 176 307 133z m654 -40 l0 -45 -50 0 -50 0 0 45 0 45 50 0 50 0 0 -45z
m1520 30 c0 -11 -12 -15 -45 -15 l-45 0 0 -125 0 -125 -25 0 -25 0 0 125 0
125 -45 0 c-33 0 -45 4 -45 15 0 12 19 15 115 15 96 0 115 -3 115 -15z m149
-59 c17 -41 31 -81 32 -88 0 -7 10 14 23 47 43 112 45 115 88 115 l39 0 -3
-137 -3 -138 -25 0 c-25 0 -25 1 -31 110 -3 61 -6 104 -7 97 -5 -33 -66 -162
-77 -162 -7 0 -24 28 -38 63 -62 148 -55 147 -56 9 -1 -122 -1 -123 -23 -120
-22 3 -23 6 -26 141 l-3 137 40 0 39 0 31 -74z m-4874 -107 c51 -14 110 -73
124 -124 6 -22 11 -66 11 -97 l0 -58 -160 0 c-159 0 -160 0 -160 -22 1 -41 37
-106 69 -122 39 -21 100 -20 152 0 40 17 41 17 66 -8 l25 -26 -48 -28 c-42
-25 -59 -29 -125 -29 -66 0 -81 4 -124 30 -68 42 -99 104 -104 207 -4 95 16
161 67 218 55 62 125 81 207 59z m809 0 c50 -14 92 -55 105 -105 5 -21 11
-121 13 -222 l3 -182 -47 0 c-48 0 -48 0 -48 34 l0 34 -33 -33 c-133 -133
-341 59 -234 216 42 61 147 94 230 71 35 -10 37 -9 37 14 0 14 -6 40 -14 59
-12 27 -22 35 -51 41 -33 6 -87 1 -141 -12 -16 -4 -24 1 -34 26 -7 17 -10 34
-6 37 9 9 114 31 151 32 17 1 48 -4 69 -10z m366 -36 l1 -48 22 38 c25 42 77
63 134 52 26 -5 33 -11 33 -30 0 -44 -10 -55 -52 -55 -47 0 -89 -20 -117 -56
-19 -25 -21 -39 -21 -200 l0 -174 -45 0 -45 0 0 254 0 255 28 4 c63 9 62 10
62 -40z m507 36 c88 -23 133 -96 133 -218 l0 -61 -160 0 c-121 0 -160 -3 -160
-12 0 -39 25 -90 56 -117 41 -36 98 -41 163 -15 36 14 41 14 66 -2 14 -9 24
-22 22 -28 -1 -6 -27 -23 -57 -38 -118 -61 -252 -20 -313 96 -17 33 -21 58
-22 136 0 85 3 101 27 147 31 58 75 96 128 111 48 14 64 14 117 1z m1929 5
c12 -3 28 -17 35 -31 l14 -26 5 29 c5 26 9 29 40 26 63 -4 60 11 60 -274 0
-145 -5 -283 -11 -308 -22 -97 -94 -158 -198 -167 -49 -5 -68 -1 -115 20 -31
14 -56 30 -56 35 0 5 11 19 24 31 23 21 25 22 54 7 39 -20 94 -20 133 -1 46
24 69 70 69 138 l0 58 -24 -28 c-22 -25 -31 -28 -88 -28 -83 0 -131 29 -173
106 -28 50 -30 62 -30 154 0 84 4 107 22 141 27 50 84 102 121 110 15 3 32 7
37 9 17 6 59 5 81 -1z m630 -29 c80 -47 119 -135 112 -255 -4 -61 -10 -87 -31
-123 -96 -163 -309 -154 -400 18 -18 32 -22 57 -22 130 0 80 3 96 28 141 16
29 43 62 60 74 72 54 176 60 253 15z m-1038 -238 l2 -247 -45 0 -45 0 0 244 0
245 33 4 c17 2 37 3 42 2 6 -1 11 -94 13 -248z m-2436 -798 c-2 -10 -14 -16
-27 -16 -29 0 -37 26 -16 47 14 14 17 14 31 0 9 -8 14 -22 12 -31z m533 -1 c1
-12 -5 -16 -19 -15 -28 3 -36 27 -17 49 14 17 16 17 25 0 6 -9 11 -25 11 -34z
m178 2 c-6 -21 -36 -21 -44 0 -4 8 0 23 9 32 14 17 16 17 27 1 7 -9 10 -24 8
-33z m-539 25 c12 -9 15 -15 7 -15 -7 0 -11 -6 -8 -14 4 -9 -2 -13 -18 -13
-26 0 -39 29 -22 46 14 14 18 14 41 -4z m180 0 c11 -8 14 -15 8 -15 -7 0 -12
-6 -12 -14 0 -18 -33 -15 -41 4 -6 14 7 40 20 40 3 0 15 -7 25 -15z m534 3
c12 -17 1 -43 -18 -43 -8 0 -18 7 -21 15 -7 15 7 40 21 40 4 0 12 -6 18 -12z
m1682 -103 l0 -55 -805 0 -805 0 0 55 0 55 805 0 805 0 0 -55z m-2482 25 c12
0 13 -3 5 -11 -6 -6 -9 -17 -7 -24 3 -7 -4 -11 -18 -11 -29 1 -41 36 -19 53 9
6 17 7 19 2 2 -5 11 -9 20 -9z m180 0 c12 0 13 -3 5 -11 -6 -6 -9 -17 -7 -24
3 -7 -4 -11 -18 -11 -29 1 -41 36 -19 53 9 6 17 7 19 2 2 -5 11 -9 20 -9z
m179 0 c13 0 13 -3 3 -15 -7 -8 -9 -15 -4 -16 5 -1 -2 -4 -16 -8 -20 -6 -26
-3 -31 13 -5 21 23 54 29 35 2 -5 11 -9 19 -9z m163 10 c0 -5 7 -10 15 -10 13
0 13 -3 3 -20 -7 -11 -20 -20 -30 -20 -19 0 -28 30 -13 47 12 15 25 16 25 3z
m180 0 c0 -5 7 -10 16 -10 13 0 14 -3 4 -15 -6 -8 -9 -18 -6 -23 3 -5 -5 -7
-19 -5 -29 6 -39 29 -22 48 14 17 27 19 27 5z m-788 -111 c-5 -22 -50 -22 -54
0 -2 9 4 23 12 31 13 13 17 13 31 0 8 -8 13 -22 11 -31z m535 21 c12 0 13 -3
4 -13 -6 -8 -8 -16 -5 -19 2 -3 -6 -5 -20 -5 -30 0 -38 25 -16 47 11 12 16 12
18 3 2 -7 10 -13 19 -13z m-357 -16 c-6 -6 -7 -14 -3 -17 3 -4 -5 -7 -20 -7
-30 0 -41 29 -18 46 19 15 55 -4 41 -22z m160 26 c0 -5 7 -10 15 -10 22 0 -2
-36 -26 -37 -20 -2 -30 26 -14 44 12 15 25 16 25 3z m377 -10 c12 0 13 -3 4
-13 -6 -8 -8 -16 -5 -19 2 -3 -6 -5 -20 -5 -29 0 -39 26 -16 44 8 6 16 7 18 2
2 -5 11 -9 19 -9z m163 10 c0 -5 8 -10 18 -11 10 0 12 -3 5 -6 -7 -2 -13 -11
-13 -19 0 -20 -38 -17 -42 4 -4 17 10 41 25 42 4 0 7 -4 7 -10z m-793 -80 c12
0 13 -3 3 -15 -6 -8 -9 -19 -5 -25 4 -6 -3 -9 -17 -7 -31 3 -44 35 -21 53 10
7 20 8 21 3 2 -5 11 -9 19 -9z m181 0 c12 0 13 -3 5 -11 -6 -6 -9 -17 -7 -24
4 -9 -3 -12 -20 -11 -14 0 -26 4 -26 8 0 3 -3 13 -6 22 -4 11 -1 16 10 16 9 0
16 6 17 13 0 10 2 10 6 0 2 -7 12 -13 21 -13z m179 0 c12 0 13 -3 3 -15 -6 -8
-9 -19 -5 -25 4 -6 -3 -9 -17 -7 -31 3 -44 35 -21 53 10 7 20 8 21 3 2 -5 11
-9 19 -9z m360 0 c12 0 13 -3 3 -15 -6 -8 -9 -19 -5 -25 4 -6 -3 -9 -17 -7
-31 3 -44 35 -21 53 10 7 20 8 21 3 2 -5 11 -9 19 -9z m-177 0 c4 0 3 -11 -3
-24 -13 -28 -39 -29 -50 -2 -8 22 9 39 31 31 8 -3 17 -5 22 -5z m1940 -95 l0
-55 -805 0 -805 0 0 55 0 55 805 0 805 0 0 -55z m-2567 -6 c-3 -9 -15 -19 -28
-22 -19 -3 -25 1 -27 17 -4 28 20 47 43 33 9 -5 14 -18 12 -28z m177 5 c-6 -6
-7 -14 -3 -17 3 -4 -5 -7 -20 -7 -30 0 -41 29 -18 46 19 15 55 -4 41 -22z
m176 16 c12 0 12 -4 2 -20 -16 -25 -45 -26 -50 -2 -4 18 25 48 30 31 2 -5 10
-9 18 -9z m180 0 c12 0 12 -4 2 -20 -7 -11 -20 -20 -29 -20 -25 0 -32 30 -12
46 10 7 20 8 21 3 2 -5 10 -9 18 -9z m181 0 c12 0 13 -3 4 -13 -6 -8 -8 -16
-5 -19 2 -3 -6 -8 -20 -10 -18 -4 -26 0 -30 15 -5 21 26 55 32 36 2 -5 11 -9
19 -9z m169 6 c17 -18 8 -46 -16 -46 -23 0 -33 27 -17 45 15 18 16 18 33 1z
m-799 -97 c-5 -4 -7 -11 -3 -17 3 -5 -5 -9 -19 -9 -29 0 -37 25 -15 47 13 13
17 13 31 0 8 -8 11 -18 6 -21z m180 0 c-5 -4 -7 -11 -3 -17 3 -5 -5 -9 -19 -9
-29 0 -37 25 -15 47 13 13 17 13 31 0 8 -8 11 -18 6 -21z m181 0 c-6 -4 -8
-11 -4 -17 3 -5 -5 -9 -19 -9 -28 0 -38 26 -16 43 11 9 20 9 33 1 11 -7 13
-14 6 -18z m170 19 c12 -17 2 -42 -20 -46 -19 -3 -28 27 -13 45 13 16 20 16
33 1z m176 -1 c16 -15 7 -42 -14 -42 -20 0 -30 26 -16 42 14 16 15 16 30 0z
m-791 -106 c-4 -15 -53 -24 -53 -9 0 3 -3 13 -6 22 -4 11 -1 16 10 16 9 0 16
4 16 10 0 5 8 3 19 -6 10 -9 17 -24 14 -33z m173 4 c-4 -26 -43 -27 -50 -2 -7
27 22 50 40 32 7 -7 11 -20 10 -30z m180 -2 c0 -16 -6 -21 -21 -20 -28 3 -40
36 -18 52 21 15 39 1 39 -32z m180 0 c0 -16 -6 -21 -21 -20 -28 3 -40 36 -18
52 21 15 39 1 39 -32z m176 0 c-9 -23 -35 -23 -45 1 -10 26 21 50 40 31 8 -8
10 -21 5 -32z m176 29 c16 -11 3 -47 -18 -47 -21 0 -34 36 -18 47 7 4 15 8 18
8 3 0 11 -4 18 -8z m1682 -87 l0 -55 -805 0 -805 0 0 55 0 55 805 0 805 0 0
-55z m-2482 5 c12 0 13 -3 5 -11 -6 -6 -9 -17 -7 -24 4 -9 -3 -11 -20 -8 -14
3 -26 13 -28 22 -4 17 25 46 30 30 2 -5 11 -9 20 -9z m180 0 c12 0 13 -3 5
-11 -6 -6 -9 -17 -7 -24 3 -7 -4 -11 -18 -11 -29 1 -41 36 -19 53 9 6 17 7 19
2 2 -5 11 -9 20 -9z m179 0 c13 0 13 -3 3 -15 -7 -8 -9 -15 -4 -16 5 -1 -2 -4
-16 -8 -20 -6 -26 -3 -31 13 -5 21 23 54 29 35 2 -5 11 -9 19 -9z m163 10 c0
-5 7 -10 15 -10 13 0 13 -3 3 -20 -7 -11 -20 -20 -30 -20 -19 0 -28 30 -13 47
12 15 25 16 25 3z m180 0 c0 -5 7 -10 15 -10 13 0 13 -3 3 -20 -15 -23 -48
-27 -48 -6 0 8 -6 17 -12 19 -8 3 -6 6 5 6 9 1 17 6 17 11 0 6 5 10 10 10 6 0
10 -4 10 -10z m-788 -111 c-2 -10 -14 -16 -27 -16 -29 0 -37 26 -16 47 14 14
17 14 31 0 9 -8 14 -22 12 -31z m533 -1 c1 -12 -5 -16 -19 -15 -28 3 -36 27
-17 49 14 17 16 17 25 0 6 -9 11 -25 11 -34z m180 0 c1 -12 -5 -16 -19 -15
-28 3 -37 28 -18 50 15 17 16 17 26 0 5 -10 11 -26 11 -35z m-535 6 c-6 -6 -7
-13 -4 -16 2 -3 -6 -5 -20 -5 -29 0 -42 32 -18 46 21 12 55 -8 42 -25z m174
21 c12 -9 15 -15 7 -15 -7 0 -11 -6 -8 -14 4 -9 -2 -13 -18 -13 -26 0 -37 24
-20 44 13 16 16 15 39 -2z m534 3 c12 -17 1 -43 -18 -43 -8 0 -18 7 -21 15 -7
15 7 40 21 40 4 0 12 -6 18 -12z m1682 -153 l0 -55 -1340 0 -1340 0 0 55 0 55
1340 0 1340 0 0 -55z m0 -215 l0 -60 -1340 0 -1340 0 0 60 0 60 1340 0 1340 0
0 -60z m0 -215 l0 -55 -1340 0 -1340 0 0 55 0 55 1340 0 1340 0 0 -55z"/>
<path d="M9639 7133 c-6 -15 -6 -36 -1 -52 7 -21 15 -26 43 -26 34 0 34 0 37
53 l3 52 -36 0 c-29 0 -37 -5 -46 -27z"/>
<path d="M9852 7148 c-7 -7 -12 -28 -12 -48 0 -41 14 -60 45 -60 31 0 45 19
45 60 0 41 -14 60 -45 60 -12 0 -26 -5 -33 -12z"/>
<path d="M3524 5491 c-18 -11 -41 -40 -56 -72 -14 -30 -25 -54 -24 -55 0 0 57
2 125 4 l123 4 -6 40 c-8 48 -23 73 -53 87 -35 16 -74 13 -109 -8z"/>
<path d="M4790 5503 c-28 -10 -61 -48 -81 -92 -10 -24 -18 -45 -17 -45 2 -1
56 0 122 2 l118 4 -5 46 c-8 72 -69 110 -137 85z"/>
<path d="M6680 5503 c-28 -10 -61 -48 -81 -92 -10 -24 -18 -45 -17 -45 2 -1
56 0 122 2 l118 4 -5 46 c-8 72 -69 110 -137 85z"/>
<path d="M7994 5491 c-39 -24 -64 -85 -64 -158 0 -78 18 -129 57 -163 62 -55
159 -36 197 38 42 82 26 205 -34 264 -32 32 -44 38 -81 38 -25 0 -57 -8 -75
-19z"/>
<path d="M10254 5491 c-39 -24 -64 -85 -64 -158 0 -78 18 -129 57 -163 62 -55
159 -36 197 38 42 82 26 205 -34 264 -32 32 -44 38 -81 38 -25 0 -57 -8 -75
-19z"/>
<path d="M14275 5309 c-52 -30 -63 -102 -20 -144 32 -33 76 -32 132 1 l44 25
-3 62 -3 62 -65 2 c-36 2 -74 -2 -85 -8z"/>
<path d="M15455 5501 c-96 -40 -114 -238 -30 -327 28 -29 39 -34 79 -34 65 0
100 21 126 75 19 39 22 58 18 118 -6 84 -26 130 -71 157 -33 20 -87 25 -122
11z"/>
<path d="M7493 4384 c-23 -12 -40 -33 -59 -71 -14 -30 -24 -56 -22 -57 2 -1
56 0 121 2 116 4 117 4 117 28 0 92 -75 138 -157 98z"/>
<path d="M8285 4201 c-34 -14 -48 -39 -48 -83 0 -85 81 -112 167 -57 36 24 36
25 34 84 l-3 60 -65 2 c-36 1 -74 -2 -85 -6z"/>
<path d="M9190 4393 c-28 -10 -61 -48 -81 -92 -10 -24 -18 -45 -17 -45 2 -1
56 0 122 2 l118 4 -5 46 c-8 72 -69 110 -137 85z"/>
<path d="M11108 4384 c-41 -22 -61 -69 -66 -155 -5 -88 18 -155 62 -184 36
-24 109 -15 142 16 24 23 24 26 22 158 l-3 135 -34 23 c-39 26 -84 29 -123 7z"/>
<path d="M11675 4391 c-96 -40 -114 -238 -30 -327 28 -29 39 -34 79 -34 65 0
100 21 126 75 19 39 22 58 18 118 -6 84 -26 130 -71 157 -33 20 -87 25 -122
11z"/>
</g>
</svg>
